<svg width="14" height="12" viewBox="0 0 14 12" fill="none" xmlns="http://www.w3.org/2000/svg">
<path d="M5.50689 0C4.63811 0 3.93223 0.760181 3.93223 1.62896C3.93223 2.28054 4.36662 2.87783 4.9096 3.09502C4.52951 3.25792 4.20372 3.58371 4.04082 4.0181C3.82363 3.42081 3.17205 2.98643 2.52046 2.98643C1.65168 2.98643 0.945801 3.69231 0.945801 4.56109C0.945801 5.21267 1.38019 5.80996 1.92318 6.02715C1.38019 6.24434 0.945801 6.84163 0.945801 7.49321C0.945801 8.36199 1.65168 9.06787 2.52046 9.06787C3.17205 9.06787 3.76933 8.63348 4.04082 8.0362C4.20372 8.47059 4.52951 8.79638 4.9096 8.95928C4.36662 9.17647 3.93223 9.77376 3.93223 10.4253C3.93223 11.2941 4.63811 12 5.50689 12C6.21277 12 6.81005 11.5656 6.97295 10.914C7.19014 11.5656 7.78743 12 8.49331 12C9.36209 12 10.068 11.2941 10.068 10.4253C10.068 9.77376 9.63358 9.17647 9.0906 8.95928C9.52499 8.79638 9.85078 8.41629 9.95937 7.9819C10.1766 8.63348 10.7739 9.06787 11.4797 9.06787C12.3485 9.06787 13.0544 8.36199 13.0544 7.49321C13.0544 6.84163 12.62 6.24434 12.077 6.02715C12.62 5.80996 13.0544 5.21267 13.0544 4.56109C13.0544 3.69231 12.3485 2.98643 11.4797 2.98643C10.7739 2.98643 10.1766 3.42081 10.0137 4.0724C9.85078 3.63801 9.52499 3.25792 9.0906 3.09502C9.63358 2.87783 10.068 2.28054 10.068 1.62896C10.068 0.760181 9.36209 0 8.49331 0C7.78743 0 7.19014 0.488688 7.02725 1.14027C6.81005 0.488688 6.21277 0 5.50689 0ZM7.02725 4.0724C6.86435 3.63801 6.53856 3.25792 6.10417 3.09502C6.53856 2.93213 6.86435 2.55204 6.97295 2.11765C7.13585 2.55204 7.46164 2.93213 7.89603 3.09502C7.46164 3.25792 7.13585 3.63801 7.02725 4.0724ZM7.02725 7.00452C6.86435 6.57014 6.53856 6.19005 6.10417 6.02715C6.53856 5.86425 6.86435 5.48416 6.97295 5.04977C7.13585 5.48416 7.46164 5.86425 7.89603 6.02715C7.46164 6.19005 7.13585 6.57014 7.02725 7.00452ZM10.0137 7.00452C9.85078 6.57014 9.52499 6.19005 9.0906 6.02715C9.52499 5.86425 9.85078 5.48416 9.95937 5.04977C10.1223 5.48416 10.4481 5.86425 10.8825 6.02715C10.4481 6.19005 10.1223 6.57014 10.0137 7.00452ZM3.11775 6.02715C3.49784 5.86425 3.87793 5.53846 4.04082 5.10407C4.20372 5.53846 4.52951 5.86425 4.9096 6.02715C4.52951 6.19005 4.20372 6.51584 4.04082 6.95023C3.87793 6.51584 3.49784 6.19005 3.11775 6.02715ZM7.02725 9.93665C6.86435 9.50226 6.53856 9.12217 6.10417 8.95928C6.53856 8.79638 6.86435 8.41629 6.97295 7.9819C7.13585 8.41629 7.46164 8.79638 7.89603 8.95928C7.46164 9.12217 7.13585 9.50226 7.02725 9.93665Z" fill="#0C35C9"/>
</svg>
